<svg xmlns="http://www.w3.org/2000/svg" viewBox="0 0 336.41 44"><defs><style>.cls-1{fill:#fff;}.cls-2{fill:#e21e32;}</style></defs><title>Asset 1</title><g id="Layer_2" data-name="Layer 2"><g id="FINAL_LOGO" data-name="FINAL LOGO"><path class="cls-1" d="M271.3,42.1h-6.4c-.2,0-.5-.1-.5-.4l-3-6.7-3.2-7-7.8-17.2a.59.59,0,0,0-1.1,0l-7.4,16.4a.55.55,0,0,0,.5.8h10.4c.2,0,.5.1.5.4l2.6,5.8a.55.55,0,0,1-.5.8H238.7c-.2,0-.5.1-.5.4l-2.8,6.3a.66.66,0,0,1-.5.4h-6.4a.55.55,0,0,1-.5-.8L246,1.5a.66.66,0,0,1,.5-.4h7a.51.51,0,0,1,.5.4l18,39.8A.77.77,0,0,1,271.3,42.1Z"/><path class="cls-1" d="M271.2,42.9h-6.4a1.29,1.29,0,0,1-1.3-.9L249.8,11.6l-7,15.5h10a1.29,1.29,0,0,1,1.3.9l2.6,5.8a1.39,1.39,0,0,1-.1,1.4,1.52,1.52,0,0,1-1.2.7H238.9l-2.8,6.2a1.54,1.54,0,0,1-1.3.9h-6.4a1.31,1.31,0,0,1-1.2-.7,1.39,1.39,0,0,1-.1-1.4l18-39.8a1.54,1.54,0,0,1,1.3-.9h7a1.29,1.29,0,0,1,1.3.9l18,39.8a1.39,1.39,0,0,1-.1,1.4A2,2,0,0,1,271.2,42.9ZM265,41.2h5.9L253.1,1.9h-6.6L228.7,41.2h5.9l2.8-6.2a1.54,1.54,0,0,1,1.3-.9H255l-2.4-5.3H242.4a1.21,1.21,0,0,1-1.2-.7,1.39,1.39,0,0,1-.1-1.4l7.4-16.3a1.42,1.42,0,0,1,1.3-.9,1.29,1.29,0,0,1,1.3.9Z"/><path class="cls-1" d="M223.8,1.6V41.4a.65.65,0,0,1-.6.6h-5.8a.65.65,0,0,1-.6-.6V34.6a.65.65,0,0,0-.6-.6H200.3a.65.65,0,0,0-.6.6v6.8a.65.65,0,0,1-.6.6h-5.8a.65.65,0,0,1-.6-.6V1.6a.65.65,0,0,1,.6-.6h5.8a.65.65,0,0,1,.6.6V26.4a.65.65,0,0,0,.6.6h15.9a.65.65,0,0,0,.6-.6V1.6a.65.65,0,0,1,.6-.6h5.8A.65.65,0,0,1,223.8,1.6Z"/><path class="cls-1" d="M223.2,42.9h-5.8a1.37,1.37,0,0,1-1.4-1.4V35H200.6v6.5a1.43,1.43,0,0,1-1.4,1.4h-5.8a1.37,1.37,0,0,1-1.4-1.4V1.6A1.52,1.52,0,0,1,193.4.1h5.8a1.45,1.45,0,0,1,1.4,1.5V26.1H216V1.6A1.45,1.45,0,0,1,217.4.1h5.8a1.45,1.45,0,0,1,1.4,1.5V41.4A1.45,1.45,0,0,1,223.2,42.9Zm-5.6-1.7h5.3V1.9h-5.3V26.4a1.45,1.45,0,0,1-1.4,1.5H200.3a1.45,1.45,0,0,1-1.4-1.5V1.9h-5.3V41.2h5.3V34.7a1.43,1.43,0,0,1,1.4-1.4h15.9a1.37,1.37,0,0,1,1.4,1.4Z"/><path class="cls-1" d="M202.9,32.7"/><g id="Japan"><path class="cls-2" d="M74.1,42.1H68a.75.75,0,0,1-.7-.5l-3-6.6-3.2-7L53.5,11.1a.77.77,0,0,0-1.4,0L45.1,27a.78.78,0,0,0,.7,1.1h10a.75.75,0,0,1,.7.5L59,34.1a.78.78,0,0,1-.7,1.1H41.9a.75.75,0,0,0-.7.5l-2.8,6.1a.75.75,0,0,1-.7.5H31.6a.78.78,0,0,1-.7-1.1L48.8,1.5a.67.67,0,0,1,.7-.4h6.8a.84.84,0,0,1,.7.4L74.8,41A.74.74,0,0,1,74.1,42.1Z"/><path class="cls-2" d="M74.1,42.9H68a1.57,1.57,0,0,1-1.4-.9L52.9,11.5,45.8,27.3l10-.1a1.57,1.57,0,0,1,1.4.9l2.5,5.5a1.6,1.6,0,0,1-.1,1.5,1.71,1.71,0,0,1-1.3.7H41.9L39.2,42a1.51,1.51,0,0,1-1.4.9H31.7a1.71,1.71,0,0,1-1.3-.7,1.58,1.58,0,0,1-.1-1.5L48.1,1.2A1.51,1.51,0,0,1,49.5.3h6.8a1.57,1.57,0,0,1,1.4.9L75.5,40.7a1.6,1.6,0,0,1-.1,1.5A1.43,1.43,0,0,1,74.1,42.9Zm0-1.6v0ZM56.3,1.8H49.6L31.7,41.4l6-.1,2.7-6.1a1.51,1.51,0,0,1,1.4-.9H58.1l-2.5-5.5h-10a1.71,1.71,0,0,1-1.3-.7,1.58,1.58,0,0,1-.1-1.5l7.1-15.8a1.51,1.51,0,0,1,1.4-.9,1.57,1.57,0,0,1,1.4.9L67.9,41.3h6Z"/><path class="cls-2" d="M81.7,30.5v-7H93.2a7.81,7.81,0,0,0,5.5-2.3,7.61,7.61,0,0,0,0-10.9A7.47,7.47,0,0,0,93.2,8H85.7a.79.79,0,0,0-.8.8V41.3a.79.79,0,0,1-.8.8H78.6a.79.79,0,0,1-.8-.8V1.8a.79.79,0,0,1,.8-.8H93.1a13.88,13.88,0,0,1,5.7,1.2,14,14,0,0,1,4.7,3.2,15.64,15.64,0,0,1,3.2,4.7,14.14,14.14,0,0,1,0,11.4,14,14,0,0,1-3.2,4.7,15.64,15.64,0,0,1-4.7,3.2,13.88,13.88,0,0,1-5.7,1.2H82.5"/><path class="cls-2" d="M84.2,42.9H78.7a1.58,1.58,0,0,1-1.6-1.6V1.8A1.58,1.58,0,0,1,78.7.2H93.2a15.8,15.8,0,0,1,6.1,1.2,15.42,15.42,0,0,1,8.2,8.2,15.31,15.31,0,0,1,1.2,6,15.8,15.8,0,0,1-1.2,6.1,15.12,15.12,0,0,1-3.3,4.9,16.27,16.27,0,0,1-4.9,3.3,15.44,15.44,0,0,1-6.1,1.2H85.7v10A1.52,1.52,0,0,1,84.2,42.9Zm-5.5-41V41.4h5.5V31.5H82.5V29.9h1.7V24.5H82.5v6.2H80.9V22.9h3.3V9a1.58,1.58,0,0,1,1.6-1.6h7.5a8.16,8.16,0,0,1,6,2.5,7.85,7.85,0,0,1,2.5,6,8.16,8.16,0,0,1-2.5,6,8.16,8.16,0,0,1-6,2.5H85.8v5.4h7.5a14.08,14.08,0,0,0,5.4-1.1,12.3,12.3,0,0,0,4.4-3,13.25,13.25,0,0,0,3-4.4,13.8,13.8,0,0,0,0-10.8,12.3,12.3,0,0,0-3-4.4,14.93,14.93,0,0,0-4.4-3A14.08,14.08,0,0,0,93.3,2H78.7Zm7.1,20.8h7.5a6.66,6.66,0,0,0,4.9-2.1,6.66,6.66,0,0,0,2.1-4.9,6.57,6.57,0,0,0-2-4.8,6.66,6.66,0,0,0-4.9-2.1H85.9Z"/><path class="cls-2" d="M146.1,42.1H140a.75.75,0,0,1-.7-.5l-3-6.6-3.2-7-7.6-16.9a.77.77,0,0,0-1.4,0l-7,15.9a.78.78,0,0,0,.7,1.1h10a.75.75,0,0,1,.7.5l2.5,5.5a.78.78,0,0,1-.7,1.1H114a.75.75,0,0,0-.7.5l-2.8,6.1a.75.75,0,0,1-.7.5h-6.1a.78.78,0,0,1-.7-1.1L120.8,1.7a.67.67,0,0,1,.7-.4h6.8a.84.84,0,0,1,.7.4L146.8,41A.78.78,0,0,1,146.1,42.1Z"/><path class="cls-2" d="M146.1,42.9H140a1.57,1.57,0,0,1-1.4-.9L124.8,11.5l-7.1,15.8,10-.1a1.57,1.57,0,0,1,1.4.9l2.5,5.5a1.6,1.6,0,0,1-.1,1.5,1.71,1.71,0,0,1-1.3.7H113.9l-2.7,6.1a1.51,1.51,0,0,1-1.4.9h-6.1a1.71,1.71,0,0,1-1.3-.7,1.58,1.58,0,0,1-.1-1.5L120.1,1.1a1.51,1.51,0,0,1,1.4-.9h6.8a1.57,1.57,0,0,1,1.4.9l17.8,39.5a1.6,1.6,0,0,1-.1,1.5A1.56,1.56,0,0,1,146.1,42.9Zm0-1.6v0ZM128.2,1.8h-6.7L103.7,41.3l6-.1,2.7-6.1a1.51,1.51,0,0,1,1.4-.9h16.3l-2.5-5.5h-10a1.71,1.71,0,0,1-1.3-.7,1.58,1.58,0,0,1-.1-1.5l7.1-15.8a1.51,1.51,0,0,1,1.4-.9,1.57,1.57,0,0,1,1.4.9l13.8,30.5h6Z"/><path class="cls-2" d="M181.1,1.8V41.3a.79.79,0,0,1-.8.8h-6.4a.75.75,0,0,1-.7-.4L158.4,16.4a.75.75,0,0,0-1.4.4V41.3a.79.79,0,0,1-.8.8h-5.5a.79.79,0,0,1-.8-.8V1.8a.79.79,0,0,1,.8-.8h6.4a.75.75,0,0,1,.7.4l14.8,25.3a.75.75,0,0,0,1.4-.4V1.8a.79.79,0,0,1,.8-.8h5.5A.86.86,0,0,1,181.1,1.8Z"/><path class="cls-2" d="M180.3,42.8h-6.4a1.34,1.34,0,0,1-1.3-.8L157.8,16.7l.1,24.5a1.58,1.58,0,0,1-1.6,1.6h-5.5a1.58,1.58,0,0,1-1.6-1.6V1.8A1.58,1.58,0,0,1,150.8.2h6.4a1.34,1.34,0,0,1,1.3.8l14.8,25.3-.1-24.5A1.58,1.58,0,0,1,174.8.2h5.5a1.58,1.58,0,0,1,1.6,1.6V41.3A1.56,1.56,0,0,1,180.3,42.8Zm-23.2-41h-6.4V41.3h5.5V16.8a1.59,1.59,0,0,1,1.2-1.5,1.62,1.62,0,0,1,1.8.7L174,41.3h6.4V1.9h-5.5V26.4a1.59,1.59,0,0,1-1.2,1.5,1.62,1.62,0,0,1-1.8-.7Z"/></g><g id="aul"><path class="cls-1" d="M306.1,1.1a.65.65,0,0,1,.6.6v24a18.58,18.58,0,0,1-1.3,6.7,17.26,17.26,0,0,1-9.2,9.2,17.92,17.92,0,0,1-13.4,0,17.26,17.26,0,0,1-9.2-9.2,16.68,16.68,0,0,1-1.3-6.7V1.7a.65.65,0,0,1,.6-.6h5.8a.65.65,0,0,1,.6.6v24a10.2,10.2,0,0,0,6.3,9.4,11,11,0,0,0,7.8.1.1.1,0,0,0,.1-.1,11.67,11.67,0,0,0,5.4-5.6,10.06,10.06,0,0,0,.8-3.9V1.6a.65.65,0,0,1,.6-.6h5.8Z"/><path class="cls-1" d="M289.5,43.8a17.85,17.85,0,0,1-7-1.4,16.1,16.1,0,0,1-5.7-3.9,20.59,20.59,0,0,1-3.9-5.7,18.6,18.6,0,0,1-1.4-7V1.8A1.45,1.45,0,0,1,272.9.3h5.8a1.45,1.45,0,0,1,1.4,1.5v24a8.89,8.89,0,0,0,.7,3.6,12.09,12.09,0,0,0,2,3,8.32,8.32,0,0,0,3,2,10.42,10.42,0,0,0,7.2.1,10.89,10.89,0,0,0,5-5.2,8.57,8.57,0,0,0,.7-3.6V1.7A1.52,1.52,0,0,1,300.1.2h5.8a1.45,1.45,0,0,1,1.4,1.5v24a17.85,17.85,0,0,1-1.4,7,16.1,16.1,0,0,1-3.9,5.7,20.59,20.59,0,0,1-5.7,3.9A15.1,15.1,0,0,1,289.5,43.8ZM273.1,1.9V25.7a15.27,15.27,0,0,0,1.3,6.4,17,17,0,0,0,3.5,5.2,15.39,15.39,0,0,0,5.2,3.5,17,17,0,0,0,6.4,1.3,15.27,15.27,0,0,0,6.4-1.3,17,17,0,0,0,5.2-3.5,15.39,15.39,0,0,0,3.5-5.2,17,17,0,0,0,1.3-6.4V1.9h-5.3V25.7a11.62,11.62,0,0,1-.8,4.2,12,12,0,0,1-5.8,6c-.1,0-.2.1-.3.1a12.06,12.06,0,0,1-8.4-.2,11.94,11.94,0,0,1-3.6-2.4,9.5,9.5,0,0,1-2.4-3.6,12,12,0,0,1-.8-4.2V1.9Z"/><path class="cls-1" d="M335.7,35.7v5.8a.65.65,0,0,1-.6.6H313.2a.65.65,0,0,1-.6-.6V1.7a.65.65,0,0,1,.6-.6H319a.65.65,0,0,1,.6.6V34.4a.65.65,0,0,0,.6.6h14.9A.75.75,0,0,1,335.7,35.7Z"/><path class="cls-1" d="M335.1,42.9h-22a1.43,1.43,0,0,1-1.4-1.4V1.7A1.45,1.45,0,0,1,313.1.2h5.8a1.45,1.45,0,0,1,1.4,1.5V34.2H335a1.43,1.43,0,0,1,1.4,1.4v5.8A1.27,1.27,0,0,1,335.1,42.9Zm-21.7-1.6h21.5V36H320.2a1.43,1.43,0,0,1-1.4-1.4V2h-5.3V41.3Z"/></g><path class="cls-2" d="M30.2,1a.86.86,0,0,1,.8.8V25.3a18.1,18.1,0,0,1-1.4,6.9,17.91,17.91,0,0,1-3.8,5.6,17.26,17.26,0,0,1-5.7,3.8A18.1,18.1,0,0,1,13.2,43a18.1,18.1,0,0,1-6.9-1.4,17.19,17.19,0,0,1-5.1-3.3.56.56,0,0,1,0-.9l4.2-4.2a.75.75,0,0,1,.9,0,10,10,0,0,0,6.9,2.7,10.19,10.19,0,0,0,7.5-3.1A9.76,9.76,0,0,0,23,29.4a11,11,0,0,0,.8-4V1.6c-.1-.3.2-.6.6-.6Z"/><path class="cls-2" d="M13.2,44a18,18,0,0,1-7.3-1.5A21.78,21.78,0,0,1,.5,39,1.66,1.66,0,0,1,0,37.8a1.85,1.85,0,0,1,.5-1.2l4.2-4.2a1.57,1.57,0,0,1,2.2,0,8.94,8.94,0,0,0,6.2,2.4A9.13,9.13,0,0,0,19.9,32,9.45,9.45,0,0,0,22,28.9a8.89,8.89,0,0,0,.7-3.6V1.6A1.58,1.58,0,0,1,24.3,0h5.8a1.79,1.79,0,0,1,1.8,1.8V25.3a18,18,0,0,1-1.5,7.3,17.6,17.6,0,0,1-4,5.9,19.11,19.11,0,0,1-6,4A17.19,17.19,0,0,1,13.2,44ZM2.1,37.8a17,17,0,0,0,4.6,2.9A15.73,15.73,0,0,0,13.2,42a15.73,15.73,0,0,0,6.5-1.3A17.75,17.75,0,0,0,25,37.1a17.75,17.75,0,0,0,3.6-5.3,15.73,15.73,0,0,0,1.3-6.5V2H24.7V25.3a11.17,11.17,0,0,1-.9,4.4,11.52,11.52,0,0,1-2.5,3.7,11.33,11.33,0,0,1-8.2,3.4,10.82,10.82,0,0,1-7.3-2.7Z"/></g></g></svg>